<svg width="6" height="10" viewBox="0 0 6 10"  xmlns="http://www.w3.org/2000/svg">
<path fill-rule="evenodd" clip-rule="evenodd" d="M0.503437 5.30915C0.421507 5.22712 0.375488 5.11593 0.375488 4.99999C0.375488 4.88405 0.421507 4.77285 0.503437 4.69082L4.87844 0.315821C4.91849 0.272837 4.96679 0.238361 5.02046 0.214449C5.07412 0.190537 5.13206 0.177679 5.1908 0.176643C5.24954 0.175606 5.30789 0.186412 5.36237 0.208416C5.41684 0.23042 5.46633 0.263171 5.50788 0.304716C5.54942 0.34626 5.58217 0.395746 5.60417 0.450223C5.62618 0.504699 5.63698 0.563049 5.63595 0.621793C5.63491 0.680536 5.62205 0.738469 5.59814 0.792135C5.57423 0.845801 5.53975 0.894102 5.49677 0.934155L1.43094 4.99999L5.49677 9.06582C5.53975 9.10587 5.57423 9.15417 5.59814 9.20784C5.62205 9.26151 5.63491 9.31944 5.63595 9.37818C5.63698 9.43693 5.62618 9.49528 5.60417 9.54975C5.58217 9.60423 5.54942 9.65372 5.50788 9.69526C5.46633 9.7368 5.41684 9.76956 5.36237 9.79156C5.30789 9.81356 5.24954 9.82437 5.1908 9.82333C5.13206 9.8223 5.07412 9.80944 5.02046 9.78553C4.96679 9.76161 4.91849 9.72714 4.87844 9.68416L0.503437 5.30915Z" />
</svg>
