<svg width="32" height="32" viewBox="0 0 32 32" fill="none" xmlns="http://www.w3.org/2000/svg">
<path d="M5 4V19C5 19.7956 5.31607 20.5587 5.87868 21.1213C6.44129 21.6839 7.20435 22 8 22H11M5 4H3M5 4H27M11 22H21M11 22L9.66667 26M27 4H29M27 4V19C27 19.7956 26.6839 20.5587 26.1213 21.1213C25.5587 21.6839 24.7957 22 24 22H21M21 22L22.3333 26M9.66667 26H22.3333M9.66667 26L9 28M22.3333 26L23 28M12 15V17M16 12V17M20 9V17" stroke="#407BFF" stroke-width="2" stroke-linecap="round" stroke-linejoin="round"/>
</svg>
