<svg width="6" height="10" viewBox="0 0 6 10"  xmlns="http://www.w3.org/2000/svg">
<path fill-rule="evenodd" clip-rule="evenodd" d="M5.49656 5.30915C5.57849 5.22712 5.62451 5.11593 5.62451 4.99999C5.62451 4.88405 5.57849 4.77285 5.49656 4.69082L1.12156 0.315821C1.08151 0.272837 1.03321 0.238361 0.979544 0.214449C0.925878 0.190537 0.867945 0.177679 0.809201 0.176643C0.750458 0.175606 0.692109 0.186412 0.637632 0.208416C0.583156 0.23042 0.533669 0.263171 0.492125 0.304716C0.450581 0.34626 0.417829 0.395746 0.395825 0.450223C0.373821 0.504699 0.363016 0.563049 0.364052 0.621793C0.365088 0.680536 0.377946 0.738469 0.401858 0.792135C0.42577 0.845801 0.460246 0.894102 0.50323 0.934155L4.56906 4.99999L0.50323 9.06582C0.460246 9.10587 0.42577 9.15417 0.401858 9.20784C0.377946 9.26151 0.365088 9.31944 0.364052 9.37818C0.363016 9.43693 0.373821 9.49528 0.395825 9.54975C0.417829 9.60423 0.450581 9.65372 0.492125 9.69526C0.533669 9.7368 0.583156 9.76956 0.637632 9.79156C0.692109 9.81356 0.750458 9.82437 0.809201 9.82333C0.867945 9.8223 0.925878 9.80944 0.979544 9.78553C1.03321 9.76161 1.08151 9.72714 1.12156 9.68416L5.49656 5.30915Z" />
</svg>
